# xmcd CD database file
#
# Track frame offsets:
#	183
#	37183
#	75058
#	109333
#	144883
#	171508
#	205108
#
# Disc length: 3676 seconds
#
# Revision: 2
# Processed by: cddbd v1.5.2PL0 Copyright (c) Steve Scherf et al.
# Submitted via: CDex 2.06
#
DISCID=560e5a07
DTITLE=Kenny Barron Quintet - Quickstep
DYEAR=1991
DGENRE=Jazz
TTITLE0=Once Upon A Time
TTITLE1=I Wanted To Say
TTITLE2=Until Then
TTITLE3=Hindsight
TTITLE4=Quickstep
TTITLE5=Here And There
TTITLE6=Big Girls
EXTD=YEAR: 1991
EXTT0=
EXTT1=
EXTT2=
EXTT3=
EXTT4=
EXTT5=
EXTT6=
PLAYORDER=
